<?xml version="1.0" encoding="UTF-8"?>
<!DOCTYPE svg PUBLIC "-//W3C//DTD SVG 1.1//EN" "http://www.w3.org/Graphics/SVG/1.1/DTD/svg11.dtd">
<svg xmlns="http://www.w3.org/2000/svg" version="1.1" width="750px" height="750px" style="shape-rendering:geometricPrecision; text-rendering:geometricPrecision; image-rendering:optimizeQuality; fill-rule:evenodd; clip-rule:evenodd" xmlns:xlink="http://www.w3.org/1999/xlink">
<g><path style="opacity:0.994" fill="#fac825" d="M 232.5,564.5 C 311.702,595.18 386.369,586.68 456.5,539C 497.069,509.259 525.069,470.426 540.5,422.5C 558.039,428.125 565.873,421.792 564,403.5C 562.167,400.333 559.667,397.833 556.5,396C 541.58,389.804 526.58,383.804 511.5,378C 502.275,376.194 496.108,379.694 493,388.5C 491.825,395.307 493.992,400.807 499.5,405C 504.317,406.91 508.984,409.076 513.5,411.5C 483.405,494.093 424.738,540.926 337.5,552C 306.434,554.044 276.434,549.378 247.5,538C 243.041,536.476 239.041,534.309 235.5,531.5C 246.395,402.483 257.562,273.483 269,144.5C 273.267,125.35 285.267,115.35 305,114.5C 418.52,124.487 532.02,134.653 645.5,145C 662.258,150.099 671.258,161.432 672.5,179C 659.574,325.851 646.408,472.684 633,619.5C 627.53,635.074 616.53,643.408 600,644.5C 487.164,634.694 374.331,624.861 261.5,615C 242.949,610.946 232.615,599.446 230.5,580.5C 231.276,575.188 231.943,569.855 232.5,564.5 Z"/></g>
<g><path style="opacity:1" fill="#020100" d="M 442.5,149.5 C 457.547,150.691 462.714,158.358 458,172.5C 451.283,178.777 443.783,183.944 435.5,188C 415.228,201.313 396.228,216.313 378.5,233C 416.626,223.942 455.293,221.275 494.5,225C 500.5,226 506.5,227 512.5,228C 520.521,233.643 522.688,241.143 519,250.5C 515.538,255.212 510.871,257.212 505,256.5C 469.697,251.853 434.53,252.686 399.5,259C 383.358,263.912 367.024,267.912 350.5,271C 342.652,272.403 335.319,271.07 328.5,267C 322.947,262.382 321.114,256.549 323,249.5C 356.465,208.172 396.298,174.838 442.5,149.5 Z"/></g>
<g><path style="opacity:0.981" fill="#000000" d="M 138.5,258.5 C 159.889,255.453 177.056,262.453 190,279.5C 197.541,294.318 197.208,308.985 189,323.5C 173.746,346.696 152.579,355.196 125.5,349C 98.8698,337.231 90.0365,317.398 99,289.5C 104.557,279.555 112.057,271.389 121.5,265C 127.02,262.11 132.686,259.943 138.5,258.5 Z"/></g>
<g><path style="opacity:0.991" fill="#010100" d="M 232.5,564.5 C 205.392,552.868 181.225,536.868 160,516.5C 155.464,523.844 148.964,526.344 140.5,524C 131.405,519.39 128.571,512.223 132,502.5C 143.354,485.81 157.854,472.643 175.5,463C 187.076,461.273 193.742,466.106 195.5,477.5C 194.471,485.708 190.137,491.541 182.5,495C 198.137,510.149 215.804,522.316 235.5,531.5C 239.041,534.309 243.041,536.476 247.5,538C 276.434,549.378 306.434,554.044 337.5,552C 424.738,540.926 483.405,494.093 513.5,411.5C 508.984,409.076 504.317,406.91 499.5,405C 493.992,400.807 491.825,395.307 493,388.5C 496.108,379.694 502.275,376.194 511.5,378C 526.58,383.804 541.58,389.804 556.5,396C 559.667,397.833 562.167,400.333 564,403.5C 565.873,421.792 558.039,428.125 540.5,422.5C 525.069,470.426 497.069,509.259 456.5,539C 386.369,586.68 311.702,595.18 232.5,564.5 Z"/></g>
</svg>
